<?xml version="1.0" encoding="utf-8"?>
<!-- Generator: Adobe Illustrator 22.0.0, SVG Export Plug-In . SVG Version: 6.00 Build 0)  -->
<svg version="1.1" id="Capa_1" xmlns="http://www.w3.org/2000/svg" xmlns:xlink="http://www.w3.org/1999/xlink" x="0px" y="0px"
	 viewBox="0 0 512 512" style="enable-background:new 0 0 512 512;" xml:space="preserve">
<g>
	<path d="M153.7,337.1h282.1c32,0,58.1-26.1,58.1-58.1V160.3c0-0.1,0-0.3,0-0.4c0-0.3,0-0.5,0-0.8c0-0.2,0-0.4-0.1-0.6
		c0-0.2-0.1-0.5-0.1-0.7s-0.1-0.4-0.1-0.6c-0.1-0.2-0.1-0.4-0.2-0.7c-0.1-0.2-0.1-0.4-0.2-0.6c-0.1-0.2-0.1-0.4-0.2-0.6
		c-0.1-0.2-0.2-0.4-0.3-0.7c-0.1-0.2-0.2-0.4-0.3-0.5c-0.1-0.2-0.2-0.4-0.3-0.6c-0.1-0.2-0.2-0.3-0.3-0.5s-0.3-0.4-0.4-0.6
		c-0.1-0.2-0.2-0.3-0.4-0.5c-0.1-0.2-0.3-0.3-0.4-0.5s-0.3-0.3-0.4-0.5s-0.3-0.3-0.4-0.4c-0.2-0.2-0.3-0.3-0.5-0.5
		c-0.2-0.1-0.3-0.3-0.5-0.4c-0.2-0.1-0.4-0.3-0.6-0.4c-0.2-0.1-0.3-0.2-0.5-0.3c-0.2-0.1-0.4-0.2-0.6-0.4c-0.2-0.1-0.4-0.2-0.6-0.3
		c-0.2-0.1-0.4-0.2-0.6-0.3c-0.2-0.1-0.4-0.2-0.6-0.3c-0.2-0.1-0.4-0.1-0.6-0.2c-0.2-0.1-0.5-0.2-0.7-0.2c-0.2,0-0.4-0.1-0.5-0.1
		c-0.3-0.1-0.5-0.1-0.8-0.1c-0.1,0-0.2-0.1-0.4-0.1L124.1,96.9V47c0-0.5,0-1.1-0.1-1.5c0-0.1,0-0.2-0.1-0.4c0-0.3-0.1-0.6-0.1-0.9
		c-0.1-0.3-0.1-0.5-0.2-0.8c0-0.2-0.1-0.3-0.1-0.5c-0.1-0.3-0.2-0.6-0.3-0.9c0-0.1-0.1-0.3-0.1-0.4c-0.1-0.3-0.2-0.5-0.4-0.8
		c-0.1-0.1-0.1-0.3-0.2-0.4c-0.1-0.2-0.2-0.4-0.4-0.6c-0.1-0.2-0.2-0.3-0.3-0.5c-0.1-0.2-0.2-0.3-0.3-0.5s-0.3-0.4-0.4-0.6
		c-0.1-0.1-0.2-0.2-0.3-0.3c-0.2-0.2-0.4-0.4-0.6-0.6c-0.1-0.1-0.2-0.2-0.3-0.3c-0.2-0.2-0.4-0.4-0.7-0.6c-0.1-0.1-0.3-0.2-0.4-0.3
		c-0.2-0.2-0.4-0.3-0.6-0.5c-0.3-0.2-0.6-0.4-0.8-0.5c-0.1-0.1-0.2-0.1-0.3-0.2c-0.4-0.2-0.9-0.4-1.4-0.6L37.8,1.1
		c-7.3-3.1-15.6,0.3-18.6,7.6s0.3,15.6,7.6,18.6l68.8,29v64.4V131v78.3v70v88.4c0,29.5,22.1,53.9,50.6,57.6
		c-5.2,8.6-8.2,18.7-8.2,29.5c0,31.7,25.8,57.3,57.3,57.3s57.3-25.8,57.3-57.3c0-10.5-2.8-20.5-7.9-28.9h127.7
		c-5.1,8.5-7.9,18.4-7.9,28.9c0,31.7,25.8,57.3,57.3,57.3s57.3-25.8,57.3-57.3s-25.8-57.3-57.3-57.3H153.7
		c-16.4,0-29.7-13.4-29.7-29.7v-38.5C132.7,334.2,142.9,337.1,153.7,337.1z M224.4,454.5c0,16-13,28.9-28.9,28.9s-28.9-13-28.9-28.9
		s13-28.9,28.9-28.9S224.4,438.6,224.4,454.5z M451.1,454.5c0,16-13,28.9-28.9,28.9s-28.9-13-28.9-28.9s13-28.9,28.9-28.9
		S451.1,438.6,451.1,454.5z M435.8,308.7H153.7c-16.4,0-29.7-13.4-29.7-29.7v-70v-78.3v-5.3l341.5,47v106.4
		C465.5,295.4,452.1,308.7,435.8,308.7z"/>
</g>
</svg>
