<?xml version="1.0" encoding="utf-8"?>
<!-- Generator: Adobe Illustrator 21.0.2, SVG Export Plug-In . SVG Version: 6.00 Build 0)  -->
<svg version="1.1" id="Capa_1" xmlns="http://www.w3.org/2000/svg" xmlns:xlink="http://www.w3.org/1999/xlink" x="0px" y="0px"
	 viewBox="0 0 512 512" style="enable-background:new 0 0 512 512;" xml:space="preserve">
<g>
	<path d="M384,0.1L317.6,0C243,0,194.8,49.5,194.8,126v58.1H128c-5.8,0-10.4,4.7-10.4,10.4v84.2c0,5.8,4.7,10.4,10.4,10.4h66.8
		v212.4c0,5.8,4.7,10.4,10.4,10.4h87.1c5.8,0,10.4-4.7,10.4-10.4V289.2h78.1c5.8,0,10.4-4.7,10.4-10.4l0-84.2c0-2.8-1.1-5.4-3.1-7.4
		c-2-2-4.6-3.1-7.4-3.1h-78.1v-49.2c0-23.7,5.6-35.7,36.5-35.7l44.7,0c5.8,0,10.4-4.7,10.4-10.4V10.5C394.4,4.8,389.7,0.1,384,0.1z"
		/>
</g>
</svg>
