<?xml version="1.0" encoding="utf-8"?>
<!-- Generator: Adobe Illustrator 21.0.2, SVG Export Plug-In . SVG Version: 6.00 Build 0)  -->
<svg version="1.1" id="Capa_1" xmlns="http://www.w3.org/2000/svg" xmlns:xlink="http://www.w3.org/1999/xlink" x="0px" y="0px"
	 viewBox="0 0 512 512" style="enable-background:new 0 0 512 512;" xml:space="preserve">
<g>
	<g>
		<g>
			<path d="M392.9,234.2H209.6v61.1h111.9c-16.7,53.1-66.3,91.7-125,91.7c-72.3,0-131-58.6-131-131c0-72.3,58.6-131,131-131
				c36.4,0,69.4,14.9,93.1,38.9l44.4-48.2C298.5,81,250,59.5,196.5,59.5C88,59.5,0,147.5,0,256s88,196.5,196.5,196.5
				c95,0,178.3-67.5,196.5-157.2L392.9,234.2L392.9,234.2L392.9,234.2z"/>
			<polygon points="512,234.1 474.5,234.1 474.5,196.6 442.3,196.6 442.3,234.1 404.8,234.1 404.8,266.2 442.3,266.2 442.3,303.7 
				474.5,303.7 474.5,266.2 512,266.2 			"/>
		</g>
	</g>
</g>
</svg>
