<?xml version="1.0" encoding="utf-8"?>
<!-- Generator: Adobe Illustrator 21.0.2, SVG Export Plug-In . SVG Version: 6.00 Build 0)  -->
<svg version="1.1" id="Capa_1" xmlns="http://www.w3.org/2000/svg" xmlns:xlink="http://www.w3.org/1999/xlink" x="0px" y="0px"
	 viewBox="0 0 512 512" style="enable-background:new 0 0 512 512;" xml:space="preserve">
<g>
	<g>
		<path d="M512,97.3c-18.8,8.4-39.1,14-60.3,16.5c21.7-13,38.3-33.6,46.2-58.1c-20.3,12-42.8,20.8-66.7,25.5
			c-19.2-20.4-46.4-33.2-76.7-33.2c-58,0-105,47-105,105c0,8.2,0.9,16.3,2.7,23.9c-87.3-4.4-164.7-46.2-216.5-109.7
			c-9.1,15.5-14.2,33.5-14.2,52.8c0,36.4,18.6,68.6,46.7,87.4c-17.2-0.6-33.4-5.3-47.6-13.2v1.3c0,50.9,36.2,93.3,84.2,103
			c-8.8,2.4-18.1,3.7-27.7,3.7c-6.8,0-13.3-0.7-19.8-2c13.4,41.8,52.2,72.1,98.1,72.9c-35.9,28.2-81.2,44.9-130.4,44.9
			c-8.5,0-16.8-0.5-25.1-1.4c46.5,29.9,101.7,47.3,161,47.3c193.2,0,298.8-160,298.8-298.8l-0.4-13.6
			C480.1,136.8,498,118.3,512,97.3z"/>
	</g>
</g>
</svg>
